<svg id="SvgjsSvg1001" width="118.15499496459961" height="118.15499496459961" xmlns="http://www.w3.org/2000/svg" version="1.1" xmlns:xlink="http://www.w3.org/1999/xlink" xmlns:svgjs="http://svgjs.com/svgjs" viewBox="0 0 118.15499496459961 118.15499496459961"><defs id="SvgjsDefs1002"></defs><rect id="SvgjsRect1008" width="118.15499496459961" height="118.15499496459961" fill="transparent"></rect><g id="SvgjsG1009" transform="matrix(1,0,0,1,-16.817502975463867,-23.422502517700195)"><title>0019_MonoA_abstract_shape_verti</title><path id="color_1" d="M86.92,112.57a31.79,31.79,0,0,1-10,1.68c-5.1,0-10.57-2.18-15.78-5.74l2-5.71H83.47ZM55.82,50.75c-16.81,0-19.31,9-19.31,17.61,0,11.29,8,25.49,18.35,35.08l14-37.54h8.91L94,109.35c12.85-7.56,21.28-22.2,21.28-31.64C115.29,59.35,76.56,50.75,55.82,50.75Zm9.55,46.06H81.29l-8-22.47Z" fill="#0000ff"></path></g></svg>